<mxfile host="app.diagrams.net" modified="2023-09-01T08:07:40.833Z" agent="Mozilla/5.0 (Windows NT 10.0; Win64; x64) AppleWebKit/537.36 (KHTML, like Gecko) Chrome/116.0.0.0 Safari/537.36 Edg/116.0.1938.62" etag="8aErGcZ7iOjBmWKyXr5H" version="21.7.1" type="github">
  <diagram name="第 1 页" id="xoX98izYL95ySu7P4GVX">
    <mxGraphModel dx="2358" dy="1338" grid="1" gridSize="10" guides="1" tooltips="1" connect="1" arrows="1" fold="1" page="1" pageScale="1" pageWidth="827" pageHeight="1169" math="0" shadow="0">
      <root>
        <mxCell id="0" />
        <mxCell id="1" parent="0" />
        <mxCell id="Z2o77yhwc-H93JAk-5GT-11" value="&lt;span style=&quot;font-size: 15px;&quot;&gt;32&lt;/span&gt;" style="rounded=0;whiteSpace=wrap;html=1;strokeColor=none;" parent="1" vertex="1">
          <mxGeometry x="620" y="150" width="110" height="50" as="geometry" />
        </mxCell>
        <mxCell id="Z2o77yhwc-H93JAk-5GT-10" value="&lt;span style=&quot;font-size: 15px;&quot;&gt;16&lt;/span&gt;" style="rounded=0;whiteSpace=wrap;html=1;strokeColor=none;" parent="1" vertex="1">
          <mxGeometry x="385" y="150" width="110" height="50" as="geometry" />
        </mxCell>
        <mxCell id="Z2o77yhwc-H93JAk-5GT-12" value="&lt;span style=&quot;font-size: 15px;&quot;&gt;8&lt;/span&gt;" style="rounded=0;whiteSpace=wrap;html=1;strokeColor=none;" parent="1" vertex="1">
          <mxGeometry x="265" y="150" width="110" height="50" as="geometry" />
        </mxCell>
        <mxCell id="Z2o77yhwc-H93JAk-5GT-9" value="&lt;font style=&quot;font-size: 15px;&quot;&gt;0&lt;/font&gt;" style="rounded=0;whiteSpace=wrap;html=1;strokeColor=none;" parent="1" vertex="1">
          <mxGeometry x="150" y="150" width="110" height="50" as="geometry" />
        </mxCell>
        <mxCell id="Z2o77yhwc-H93JAk-5GT-1" value="&lt;font style=&quot;font-size: 15px;&quot;&gt;version&lt;/font&gt;" style="rounded=0;whiteSpace=wrap;html=1;" parent="1" vertex="1">
          <mxGeometry x="200" y="200" width="120" height="40" as="geometry" />
        </mxCell>
        <mxCell id="Z2o77yhwc-H93JAk-5GT-2" value="&lt;font style=&quot;font-size: 15px;&quot;&gt;msg_type&lt;/font&gt;" style="rounded=0;whiteSpace=wrap;html=1;" parent="1" vertex="1">
          <mxGeometry x="320" y="200" width="120" height="40" as="geometry" />
        </mxCell>
        <mxCell id="Z2o77yhwc-H93JAk-5GT-3" value="&lt;font style=&quot;font-size: 15px;&quot;&gt;msg_len&lt;/font&gt;" style="rounded=0;whiteSpace=wrap;html=1;" parent="1" vertex="1">
          <mxGeometry x="440" y="200" width="240" height="40" as="geometry" />
        </mxCell>
        <mxCell id="Z2o77yhwc-H93JAk-5GT-4" value="&lt;font style=&quot;font-size: 15px;&quot;&gt;rx_num&lt;/font&gt;" style="rounded=0;whiteSpace=wrap;html=1;" parent="1" vertex="1">
          <mxGeometry x="200" y="240" width="240" height="40" as="geometry" />
        </mxCell>
        <mxCell id="Z2o77yhwc-H93JAk-5GT-5" value="&lt;font style=&quot;font-size: 15px;&quot;&gt;rx_end&lt;/font&gt;" style="rounded=0;whiteSpace=wrap;html=1;" parent="1" vertex="1">
          <mxGeometry x="440" y="240" width="240" height="40" as="geometry" />
        </mxCell>
        <mxCell id="Z2o77yhwc-H93JAk-5GT-6" value="&lt;font style=&quot;font-size: 15px;&quot;&gt;data&lt;/font&gt;" style="rounded=0;whiteSpace=wrap;html=1;" parent="1" vertex="1">
          <mxGeometry x="200" y="280" width="480" height="60" as="geometry" />
        </mxCell>
      </root>
    </mxGraphModel>
  </diagram>
</mxfile>
